<?xml version="1.0" standalone="no"?>
<!DOCTYPE svg PUBLIC "-//W3C//DTD SVG 20010904//EN"
 "http://www.w3.org/TR/2001/REC-SVG-20010904/DTD/svg10.dtd">
<svg version="1.0" xmlns="http://www.w3.org/2000/svg"
 width="229.000000pt" height="229.000000pt" viewBox="0 0 229.000000 229.000000"
 preserveAspectRatio="xMidYMid meet">
<metadata>
Created by potrace 1.11, written by Peter Selinger 2001-2013
</metadata>
<g transform="translate(0.000000,229.000000) scale(0.100000,-0.100000)"
fill="#000000" stroke="none">
<path d="M1155 1700 c-8 -26 6 -43 31 -38 13 2 19 12 19 28 0 34 -40 41 -50
10z"/>
<path d="M1075 1627 c-65 -21 -76 -28 -87 -53 -17 -36 23 -114 58 -114 30 0
30 1 -1 46 -29 43 -30 47 -10 64 13 10 15 9 15 -9 0 -36 49 -101 77 -101 26 0
25 4 -15 57 -26 35 -26 60 -1 76 35 22 49 2 49 -68 0 -58 2 -66 18 -63 13 2
18 17 22 68 4 52 9 65 23 68 21 4 47 -15 47 -35 0 -8 -11 -29 -24 -46 -38 -53
-39 -57 -13 -57 29 0 77 63 77 99 0 20 2 21 15 11 20 -17 19 -21 -10 -64 -31
-45 -31 -46 -1 -46 35 0 75 78 58 114 -12 26 -25 34 -92 54 -43 13 -165 13
-205 -1z"/>
<path d="M694 1415 c-75 -16 -109 -33 -153 -77 -105 -102 -99 -273 13 -425 54
-74 123 -131 217 -182 99 -53 183 -74 289 -71 47 1 97 1 113 1 222 -6 242 -5
312 18 218 73 389 245 410 415 15 114 -45 220 -153 273 -48 23 -72 28 -157 31
-71 3 -119 -1 -165 -13 -70 -17 -202 -78 -221 -101 -9 -11 -21 -7 -67 25 -141
95 -308 136 -438 106z m263 -118 c34 -14 82 -39 107 -57 l46 -31 -35 -42 c-60
-70 -89 -142 -93 -227 -3 -68 -1 -81 27 -132 l30 -58 -28 0 c-87 0 -248 78
-331 162 -159 159 -161 345 -3 404 60 22 203 13 280 -19z m746 -16 c171 -83
109 -320 -118 -456 -86 -51 -174 -76 -272 -77 -71 -1 -90 3 -140 28 -42 21
-64 40 -81 69 -84 146 98 381 348 450 80 22 203 15 263 -14z"/>
<path d="M1030 1416 c0 -22 16 -24 160 -20 113 2 136 5 138 18 3 14 -16 16
-147 16 -122 0 -151 -3 -151 -14z"/>
</g>
</svg>
